<?xml version="1.0" encoding="utf-8"?>
<!-- Generator: Adobe Illustrator 17.1.0, SVG Export Plug-In . SVG Version: 6.00 Build 0)  -->
<!DOCTYPE svg PUBLIC "-//W3C//DTD SVG 1.1//EN" "http://www.w3.org/Graphics/SVG/1.1/DTD/svg11.dtd">
<svg version="1.1" xmlns="http://www.w3.org/2000/svg" xmlns:xlink="http://www.w3.org/1999/xlink" x="0px" y="0px"
	 viewBox="0 0 266 280" enable-background="new 0 0 266 280" xml:space="preserve">
<g id="bee_x5F_5">
	<g id="bee5_1_">
		<g id="body_14_">
			<g>
				
					<radialGradient id="SVGID_1_" cx="138.4719" cy="151.7379" r="80.9721" gradientTransform="matrix(0.9874 0 0 0.8884 -3.734 7.6962)" gradientUnits="userSpaceOnUse">
					<stop  offset="0" style="stop-color:#FBD383"/>
					<stop  offset="0.1828" style="stop-color:#FCC671"/>
					<stop  offset="0.4441" style="stop-color:#FEB85E"/>
					<stop  offset="0.7133" style="stop-color:#FFB053"/>
					<stop  offset="1" style="stop-color:#FFAD4F"/>
				</radialGradient>
				<path fill="url(#SVGID_1_)" d="M186.1,116.6c-1.8-5.6-3.6-10.3-5.6-14.4c-31.6-2.7-61.1-2.7-93.6-0.1c-2.3,4.6-4.3,9.6-6.2,15.2
					C117,122.3,151.1,120.5,186.1,116.6z"/>
				
					<radialGradient id="SVGID_2_" cx="138.4719" cy="151.7379" r="80.9721" gradientTransform="matrix(0.9874 0 0 0.8884 -3.734 7.6962)" gradientUnits="userSpaceOnUse">
					<stop  offset="0" style="stop-color:#FBD383"/>
					<stop  offset="0.1828" style="stop-color:#FCC671"/>
					<stop  offset="0.4441" style="stop-color:#FEB85E"/>
					<stop  offset="0.7133" style="stop-color:#FFB053"/>
					<stop  offset="1" style="stop-color:#FFAD4F"/>
				</radialGradient>
				<path fill="url(#SVGID_2_)" d="M163.2,78.7c-2.4-2.3-4.9-4.6-7.6-7c-7.9-3.4-39.1-1.7-44.8,0c-2.6,2.4-5,4.7-7.2,7.1
					C124.4,78.1,143.6,78,163.2,78.7z"/>
				
					<radialGradient id="SVGID_3_" cx="138.4719" cy="151.7379" r="80.9721" gradientTransform="matrix(0.9874 0 0 0.8884 -3.734 7.6962)" gradientUnits="userSpaceOnUse">
					<stop  offset="0" style="stop-color:#FBD383"/>
					<stop  offset="0.1828" style="stop-color:#FCC671"/>
					<stop  offset="0.4441" style="stop-color:#FEB85E"/>
					<stop  offset="0.7133" style="stop-color:#FFB053"/>
					<stop  offset="1" style="stop-color:#FFAD4F"/>
				</radialGradient>
				<path fill="url(#SVGID_3_)" d="M187.1,157.5c2-5.5,3.6-11.2,4.6-17c-39.6,8.2-78.4,8.2-116.5,0.3c1.4,5.4,3.8,11.4,6.7,17.4
					C118.4,166.1,152.3,165.5,187.1,157.5z"/>
				
					<radialGradient id="SVGID_4_" cx="138.4719" cy="151.7379" r="80.9721" gradientTransform="matrix(0.9874 0 0 0.8884 -3.734 7.6962)" gradientUnits="userSpaceOnUse">
					<stop  offset="0" style="stop-color:#FBD383"/>
					<stop  offset="0.1828" style="stop-color:#FCC671"/>
					<stop  offset="0.4441" style="stop-color:#FEB85E"/>
					<stop  offset="0.7133" style="stop-color:#FFB053"/>
					<stop  offset="1" style="stop-color:#FFAD4F"/>
				</radialGradient>
				<path fill="url(#SVGID_4_)" d="M157,201.3c5.8-4.7,11.5-10.9,16.5-18c-25.4,4.6-51.1,5.1-76.5,1c4.9,7.1,9.7,13.1,13.3,16.7
					c7.6-0.9,17.2-2,21.8-2C137.4,199,149.1,200.3,157,201.3z"/>
			</g>
			<g>
				<path d="M180.5,102.2c-4.9-10.3-10.5-16.9-17.3-23.4c-19.6-0.7-38.8-0.7-59.6,0.1c-6.9,7.3-12.2,14.6-16.6,23.3
					C119.4,99.5,148.9,99.5,180.5,102.2z"/>
				<path d="M191.8,140.5c0.1-0.5,0.2-1,0.3-1.5c-1.9-8.8-3.9-16.1-5.9-22.4c-35,3.9-69.1,5.7-105.4,0.7c-2.1,6.3-4.1,13.5-5.9,21.7
					c0.1,0.6,0.3,1.2,0.4,1.8C113.3,148.7,152.1,148.6,191.8,140.5z"/>
				<path d="M173.6,183.2c5.4-7.6,10.1-16.4,13.5-25.8c-34.8,8.1-68.7,8.6-105.2,0.7c4.3,9.1,9.8,18.3,15.2,26.1
					C122.5,188.4,148.2,187.9,173.6,183.2z"/>
				<path d="M153,204.3c1.3-0.9,2.7-1.9,4-3c-7.9-1-19.6-2.3-24.8-2.3c-4.6,0-14.2,1-21.8,2c1.6,1.6,3,2.7,4.1,3.3
					c9.7,12.5,14.1,29.8,18.5,47.7C138,233.6,143.6,216.5,153,204.3z"/>
			</g>
			<g>
				<radialGradient id="SVGID_5_" cx="132.8397" cy="110.2607" r="28.9869" gradientUnits="userSpaceOnUse">
					<stop  offset="0" style="stop-color:#FFFFFF;stop-opacity:0.8"/>
					<stop  offset="6.913048e-02" style="stop-color:#FFFCE9;stop-opacity:0.8138"/>
					<stop  offset="0.2159" style="stop-color:#FEF7BF;stop-opacity:0.8432"/>
					<stop  offset="0.3661" style="stop-color:#FDF29D;stop-opacity:0.8732"/>
					<stop  offset="0.5181" style="stop-color:#FDEE82;stop-opacity:0.9036"/>
					<stop  offset="0.6726" style="stop-color:#FCEC6F;stop-opacity:0.9345"/>
					<stop  offset="0.8311" style="stop-color:#FCEA64;stop-opacity:0.9662"/>
					<stop  offset="1" style="stop-color:#FCEA60"/>
				</radialGradient>
				<path fill="url(#SVGID_5_)" d="M172.6,118c-1.2-6-3.1-11.7-5.5-16.8c-22.9-1.4-45-1.4-68.4,0.1c-2.5,5.3-4.4,11.2-5.6,17.5
					C120.2,121.4,146.2,120.5,172.6,118z"/>
				<radialGradient id="SVGID_6_" cx="132.9167" cy="153.6929" r="29.9252" gradientUnits="userSpaceOnUse">
					<stop  offset="0" style="stop-color:#FFFFFF;stop-opacity:0.8"/>
					<stop  offset="6.913048e-02" style="stop-color:#FFFCE9;stop-opacity:0.8138"/>
					<stop  offset="0.2159" style="stop-color:#FEF7BF;stop-opacity:0.8432"/>
					<stop  offset="0.3661" style="stop-color:#FDF29D;stop-opacity:0.8732"/>
					<stop  offset="0.5181" style="stop-color:#FDEE82;stop-opacity:0.9036"/>
					<stop  offset="0.6726" style="stop-color:#FCEC6F;stop-opacity:0.9345"/>
					<stop  offset="0.8311" style="stop-color:#FCEA64;stop-opacity:0.9662"/>
					<stop  offset="1" style="stop-color:#FCEA60"/>
				</radialGradient>
				<path fill="url(#SVGID_6_)" d="M170.7,160.7c1.6-5.3,2.8-11.1,3.3-17.1c-27.8,4-55.2,4-82.2,0.1c0.5,6,1.6,11.7,3.3,17
					C121,164.9,145.8,164.8,170.7,160.7z"/>
				<radialGradient id="SVGID_7_" cx="132.9846" cy="191.2341" r="17.2283" gradientUnits="userSpaceOnUse">
					<stop  offset="0" style="stop-color:#FFFFFF;stop-opacity:0.8"/>
					<stop  offset="6.913048e-02" style="stop-color:#FFFCE9;stop-opacity:0.8138"/>
					<stop  offset="0.2159" style="stop-color:#FEF7BF;stop-opacity:0.8432"/>
					<stop  offset="0.3661" style="stop-color:#FDF29D;stop-opacity:0.8732"/>
					<stop  offset="0.5181" style="stop-color:#FDEE82;stop-opacity:0.9036"/>
					<stop  offset="0.6726" style="stop-color:#FCEC6F;stop-opacity:0.9345"/>
					<stop  offset="0.8311" style="stop-color:#FCEA64;stop-opacity:0.9662"/>
					<stop  offset="1" style="stop-color:#FCEA60"/>
				</radialGradient>
				<path fill="url(#SVGID_7_)" d="M156.7,185.7c-15.8,1.7-31.7,1.8-47.5,0.2c6.7,6.9,14.9,10.9,23.7,10.9
					C141.8,196.8,150,192.7,156.7,185.7z"/>
				<radialGradient id="SVGID_8_" cx="132.8524" cy="76.5414" r="10.1388" gradientUnits="userSpaceOnUse">
					<stop  offset="0" style="stop-color:#FFFFFF;stop-opacity:0.8"/>
					<stop  offset="6.913048e-02" style="stop-color:#FFFCE9;stop-opacity:0.8138"/>
					<stop  offset="0.2159" style="stop-color:#FEF7BF;stop-opacity:0.8432"/>
					<stop  offset="0.3661" style="stop-color:#FDF29D;stop-opacity:0.8732"/>
					<stop  offset="0.5181" style="stop-color:#FDEE82;stop-opacity:0.9036"/>
					<stop  offset="0.6726" style="stop-color:#FCEC6F;stop-opacity:0.9345"/>
					<stop  offset="0.8311" style="stop-color:#FCEA64;stop-opacity:0.9662"/>
					<stop  offset="1" style="stop-color:#FCEA60"/>
				</radialGradient>
				<path fill="url(#SVGID_8_)" d="M147.1,78.3c-4.4-2.4-9.2-3.7-14.2-3.7c-5,0-9.8,1.3-14.3,3.7C128.3,78.2,137.7,78.2,147.1,78.3z
					"/>
			</g>
			<g>
				<path fill="#333333" d="M156.7,88.3c-1.6-1.8-3.5-3.4-5.8-4.2c-1.4-0.5-3-0.7-4.5-0.9c-7.5-0.8-15.1-1.5-22.7-1.4
					c-4.3,0-8.9,0.3-12.4,2.9c-1.6,1.1-2.9,2.7-3.7,4.5c-0.8,1.7-1,4,0.3,5.3c1,1,2.6,1.1,4,1.1c13.9,0.2,27.8,0.5,41.7,0.7
					c1.6,0,3.3,0,4.4-1.2C160,93.4,158.5,90.3,156.7,88.3z"/>
				<path fill="#333333" d="M158.6,169.2c3.2,0.3,1,8-1.6,10c-2.6,2-12.6,4-21,4.2c-8.4,0.2-18.6,1.2-22.4-1.2s-9.6-11.2-7-13
					c2.6-1.8,23.2,0.2,27.2,0.2S151.6,168.6,158.6,169.2z"/>
				<path fill="#333333" d="M159.7,124.1c9.2,2.6,9.2,13.4,5.6,15.9c-1.8,1.3-21.6,3.7-29.4,3.3c-7.8-0.4-30.9,0.6-34.7-2
					s-4.1-15,1.7-17.2c5.8-2.2,25,0,29.8,0C137.5,124.1,154.1,122.5,159.7,124.1z"/>
			</g>
		</g>
		<g id="head_13_">
			<path display="none" d="M165.6,48.8c2.6,10.6-14.2,33.7-32.2,33.7s-36.3-21.3-32.9-33.7c3.6-13,15-15.3,32.9-15.3
				S162.5,36.1,165.6,48.8z"/>
			<path d="M165.6,50.8c-1.8,13.3-14.2,33.7-32.2,33.7s-30.5-20.9-32.9-33.7c3.6-13,15-15.3,32.9-15.3S162.5,38.1,165.6,50.8z"/>
			<path fill="#4D4D4D" d="M158.2,50.8c2,8.2-10.9,1.3-24.8,1.3c-13.9,0-28.2,8.3-25.6-1.3c2.8-10.1,11.6-11.8,25.5-11.8
				S155.8,41,158.2,50.8z"/>
			<path d="M120.9,47.5c1.1-0.3,1.9-1.4,1.6-2.5c-3.2-14.4-11.9-24.4-19.9-22.7c-1.1,0.3-1.9,1.4-1.6,2.5c0.3,1.1,1.8,4,3,3.7
				c5.9-1.3,12.1,7.1,14.4,17.3C118.7,47,119.8,47.8,120.9,47.5z"/>
			<path d="M146,47.5c-1.1-0.2-1.9-1.4-1.6-2.5c3.1-14.5,11.9-24.4,19.9-22.7c1.1,0.2,1.9,1.4,1.6,2.5c-0.2,1.1-1.8,4-3,3.7
				c-5.9-1.3-12.1,7.1-14.3,17.3C148.2,47,147.1,47.8,146,47.5z"/>
		</g>
		<g id="wings_13_" opacity="0.9">
			<g>
				<path fill="#CCCCCC" d="M152.7,75.2c23-5.8,64.9,64.4,82.1,140.3c-12.3,8.3-44.5,18.5-64.5,3.7c-8.9-16.3-30.2-102.4-30-120.6
					C140.4,87.7,142.3,77.8,152.7,75.2z"/>
				<path opacity="0.5" fill="#FFFFFF" d="M144.9,95c0,0,0.7-14.3,7.4-16.9c2.8-1,8,0.8,10.5,2.2c15,8.8,31.4,40.7,31.4,40.7
					s-22.8-32.2-37.4-37.9C150.4,82.5,144.9,95,144.9,95z"/>
				<path opacity="0.5" fill="#FFFFFF" d="M211.3,159.1c0,0,14,35.9,17.2,53.7c-5.2,2.7-26.2,10.7-38.7,7.5
					c10.3-1.4,23.7-7.5,30.1-11.9C218.3,190.5,211.3,159.1,211.3,159.1z"/>
			</g>
			<g>
				<path fill="#CCCCCC" d="M114.4,75.4c-23-5.7-64.8,64.4-82,140.3c12.3,8.2,44.5,18.4,64.5,3.6c8.9-16.3,30.1-102.4,29.9-120.6
					C126.7,87.8,124.8,78,114.4,75.4z"/>
				<path opacity="0.5" fill="#FFFFFF" d="M122.2,95.2c0,0-0.7-14.3-7.4-16.9c-2.8-1-8,0.8-10.5,2.3c-15,8.8-31.4,40.7-31.4,40.7
					S95.6,89,110.2,83.4C116.7,82.7,122.2,95.2,122.2,95.2z"/>
				<path opacity="0.5" fill="#FFFFFF" d="M56.1,158.4c0,0-14,35.9-17.2,53.8c5.2,2.6,26.2,10.7,38.7,7.5
					c-10.3-1.4-23.8-7.5-30.1-11.8C49.1,189.8,56.1,158.4,56.1,158.4z"/>
			</g>
		</g>
	</g>
</g>
<g id="bee_x5F_4">
	<g id="bee4_1_">
		<g id="body_8_">
			<g>
				
					<radialGradient id="SVGID_9_" cx="138.4719" cy="151.7379" r="80.9721" gradientTransform="matrix(0.9874 0 0 0.8884 -3.734 7.6962)" gradientUnits="userSpaceOnUse">
					<stop  offset="0" style="stop-color:#FBD383"/>
					<stop  offset="0.1828" style="stop-color:#FCC671"/>
					<stop  offset="0.4441" style="stop-color:#FEB85E"/>
					<stop  offset="0.7133" style="stop-color:#FFB053"/>
					<stop  offset="1" style="stop-color:#FFAD4F"/>
				</radialGradient>
				<path fill="url(#SVGID_9_)" d="M186.1,116.6c-1.8-5.6-3.6-10.3-5.6-14.4c-31.6-2.7-61.1-2.7-93.6-0.1c-2.3,4.6-4.3,9.6-6.2,15.2
					C117,122.3,151.1,120.5,186.1,116.6z"/>
				
					<radialGradient id="SVGID_10_" cx="138.4719" cy="151.7379" r="80.9721" gradientTransform="matrix(0.9874 0 0 0.8884 -3.734 7.6962)" gradientUnits="userSpaceOnUse">
					<stop  offset="0" style="stop-color:#FBD383"/>
					<stop  offset="0.1828" style="stop-color:#FCC671"/>
					<stop  offset="0.4441" style="stop-color:#FEB85E"/>
					<stop  offset="0.7133" style="stop-color:#FFB053"/>
					<stop  offset="1" style="stop-color:#FFAD4F"/>
				</radialGradient>
				<path fill="url(#SVGID_10_)" d="M163.2,78.7c-2.4-2.3-4.9-4.6-7.6-7c-7.9-3.4-39.1-1.7-44.8,0c-2.6,2.4-5,4.7-7.2,7.1
					C124.4,78.1,143.6,78,163.2,78.7z"/>
				
					<radialGradient id="SVGID_11_" cx="138.4719" cy="151.7379" r="80.9721" gradientTransform="matrix(0.9874 0 0 0.8884 -3.734 7.6962)" gradientUnits="userSpaceOnUse">
					<stop  offset="0" style="stop-color:#FBD383"/>
					<stop  offset="0.1828" style="stop-color:#FCC671"/>
					<stop  offset="0.4441" style="stop-color:#FEB85E"/>
					<stop  offset="0.7133" style="stop-color:#FFB053"/>
					<stop  offset="1" style="stop-color:#FFAD4F"/>
				</radialGradient>
				<path fill="url(#SVGID_11_)" d="M187.1,157.5c2-5.5,3.6-11.2,4.6-17c-39.6,8.2-78.4,8.2-116.5,0.3c1.4,5.4,3.8,11.4,6.7,17.4
					C118.4,166.1,152.3,165.5,187.1,157.5z"/>
				
					<radialGradient id="SVGID_12_" cx="138.4719" cy="151.7379" r="80.9721" gradientTransform="matrix(0.9874 0 0 0.8884 -3.734 7.6962)" gradientUnits="userSpaceOnUse">
					<stop  offset="0" style="stop-color:#FBD383"/>
					<stop  offset="0.1828" style="stop-color:#FCC671"/>
					<stop  offset="0.4441" style="stop-color:#FEB85E"/>
					<stop  offset="0.7133" style="stop-color:#FFB053"/>
					<stop  offset="1" style="stop-color:#FFAD4F"/>
				</radialGradient>
				<path fill="url(#SVGID_12_)" d="M157,201.3c5.8-4.7,11.5-10.9,16.5-18c-25.4,4.6-51.1,5.1-76.5,1c4.9,7.1,9.7,13.1,13.3,16.7
					c7.6-0.9,17.2-2,21.8-2C137.4,199,149.1,200.3,157,201.3z"/>
			</g>
			<g>
				<path d="M180.5,102.2c-4.9-10.3-10.5-16.9-17.3-23.4c-19.6-0.7-38.8-0.7-59.6,0.1c-6.9,7.3-12.2,14.6-16.6,23.3
					C119.4,99.5,148.9,99.5,180.5,102.2z"/>
				<path d="M191.8,140.5c0.1-0.5,0.2-1,0.3-1.5c-1.9-8.8-3.9-16.1-5.9-22.4c-35,3.9-69.1,5.7-105.4,0.7c-2.1,6.3-4.1,13.5-5.9,21.7
					c0.1,0.6,0.3,1.2,0.4,1.8C113.3,148.7,152.1,148.6,191.8,140.5z"/>
				<path d="M173.6,183.2c5.4-7.6,10.1-16.4,13.5-25.8c-34.8,8.1-68.7,8.6-105.2,0.7c4.3,9.1,9.8,18.3,15.2,26.1
					C122.5,188.4,148.2,187.9,173.6,183.2z"/>
				<path d="M153,204.3c1.3-0.9,2.7-1.9,4-3c-7.9-1-19.6-2.3-24.8-2.3c-4.6,0-14.2,1-21.8,2c1.6,1.6,3,2.7,4.1,3.3
					c9.7,12.5,14.1,29.8,18.5,47.7C138,233.6,143.6,216.5,153,204.3z"/>
			</g>
			<g>
				<radialGradient id="SVGID_13_" cx="132.8397" cy="110.2607" r="28.9869" gradientUnits="userSpaceOnUse">
					<stop  offset="0" style="stop-color:#FFFFFF;stop-opacity:0.8"/>
					<stop  offset="6.913048e-02" style="stop-color:#FFFCE9;stop-opacity:0.8138"/>
					<stop  offset="0.2159" style="stop-color:#FEF7BF;stop-opacity:0.8432"/>
					<stop  offset="0.3661" style="stop-color:#FDF29D;stop-opacity:0.8732"/>
					<stop  offset="0.5181" style="stop-color:#FDEE82;stop-opacity:0.9036"/>
					<stop  offset="0.6726" style="stop-color:#FCEC6F;stop-opacity:0.9345"/>
					<stop  offset="0.8311" style="stop-color:#FCEA64;stop-opacity:0.9662"/>
					<stop  offset="1" style="stop-color:#FCEA60"/>
				</radialGradient>
				<path fill="url(#SVGID_13_)" d="M172.6,118c-1.2-6-3.1-11.7-5.5-16.8c-22.9-1.4-45-1.4-68.4,0.1c-2.5,5.3-4.4,11.2-5.6,17.5
					C120.2,121.4,146.2,120.5,172.6,118z"/>
				<radialGradient id="SVGID_14_" cx="132.9167" cy="153.6929" r="29.9252" gradientUnits="userSpaceOnUse">
					<stop  offset="0" style="stop-color:#FFFFFF;stop-opacity:0.8"/>
					<stop  offset="6.913048e-02" style="stop-color:#FFFCE9;stop-opacity:0.8138"/>
					<stop  offset="0.2159" style="stop-color:#FEF7BF;stop-opacity:0.8432"/>
					<stop  offset="0.3661" style="stop-color:#FDF29D;stop-opacity:0.8732"/>
					<stop  offset="0.5181" style="stop-color:#FDEE82;stop-opacity:0.9036"/>
					<stop  offset="0.6726" style="stop-color:#FCEC6F;stop-opacity:0.9345"/>
					<stop  offset="0.8311" style="stop-color:#FCEA64;stop-opacity:0.9662"/>
					<stop  offset="1" style="stop-color:#FCEA60"/>
				</radialGradient>
				<path fill="url(#SVGID_14_)" d="M170.7,160.7c1.6-5.3,2.8-11.1,3.3-17.1c-27.8,4-55.2,4-82.2,0.1c0.5,6,1.6,11.7,3.3,17
					C121,164.9,145.8,164.8,170.7,160.7z"/>
				<radialGradient id="SVGID_15_" cx="132.9846" cy="191.2341" r="17.2283" gradientUnits="userSpaceOnUse">
					<stop  offset="0" style="stop-color:#FFFFFF;stop-opacity:0.8"/>
					<stop  offset="6.913048e-02" style="stop-color:#FFFCE9;stop-opacity:0.8138"/>
					<stop  offset="0.2159" style="stop-color:#FEF7BF;stop-opacity:0.8432"/>
					<stop  offset="0.3661" style="stop-color:#FDF29D;stop-opacity:0.8732"/>
					<stop  offset="0.5181" style="stop-color:#FDEE82;stop-opacity:0.9036"/>
					<stop  offset="0.6726" style="stop-color:#FCEC6F;stop-opacity:0.9345"/>
					<stop  offset="0.8311" style="stop-color:#FCEA64;stop-opacity:0.9662"/>
					<stop  offset="1" style="stop-color:#FCEA60"/>
				</radialGradient>
				<path fill="url(#SVGID_15_)" d="M156.7,185.7c-15.8,1.7-31.7,1.8-47.5,0.2c6.7,6.9,14.9,10.9,23.7,10.9
					C141.8,196.8,150,192.7,156.7,185.7z"/>
				<radialGradient id="SVGID_16_" cx="132.8524" cy="76.5414" r="10.1388" gradientUnits="userSpaceOnUse">
					<stop  offset="0" style="stop-color:#FFFFFF;stop-opacity:0.8"/>
					<stop  offset="6.913048e-02" style="stop-color:#FFFCE9;stop-opacity:0.8138"/>
					<stop  offset="0.2159" style="stop-color:#FEF7BF;stop-opacity:0.8432"/>
					<stop  offset="0.3661" style="stop-color:#FDF29D;stop-opacity:0.8732"/>
					<stop  offset="0.5181" style="stop-color:#FDEE82;stop-opacity:0.9036"/>
					<stop  offset="0.6726" style="stop-color:#FCEC6F;stop-opacity:0.9345"/>
					<stop  offset="0.8311" style="stop-color:#FCEA64;stop-opacity:0.9662"/>
					<stop  offset="1" style="stop-color:#FCEA60"/>
				</radialGradient>
				<path fill="url(#SVGID_16_)" d="M147.1,78.3c-4.4-2.4-9.2-3.7-14.2-3.7c-5,0-9.8,1.3-14.3,3.7C128.3,78.2,137.7,78.2,147.1,78.3
					z"/>
			</g>
			<g>
				<path fill="#333333" d="M156.7,88.3c-1.6-1.8-3.5-3.4-5.8-4.2c-1.4-0.5-3-0.7-4.5-0.9c-7.5-0.8-15.1-1.5-22.7-1.4
					c-4.3,0-8.9,0.3-12.4,2.9c-1.6,1.1-2.9,2.7-3.7,4.5c-0.8,1.7-1,4,0.3,5.3c1,1,2.6,1.1,4,1.1c13.9,0.2,27.8,0.5,41.7,0.7
					c1.6,0,3.3,0,4.4-1.2C160,93.4,158.5,90.3,156.7,88.3z"/>
				<path fill="#333333" d="M158.6,169.2c3.2,0.3,1,8-1.6,10c-2.6,2-12.6,4-21,4.2c-8.4,0.2-18.6,1.2-22.4-1.2s-9.6-11.2-7-13
					c2.6-1.8,23.2,0.2,27.2,0.2S151.6,168.6,158.6,169.2z"/>
				<path fill="#333333" d="M159.7,124.1c9.2,2.6,9.2,13.4,5.6,15.9c-1.8,1.3-21.6,3.7-29.4,3.3c-7.8-0.4-30.9,0.6-34.7-2
					s-4.1-15,1.7-17.2c5.8-2.2,25,0,29.8,0C137.5,124.1,154.1,122.5,159.7,124.1z"/>
			</g>
		</g>
		<g id="head_11_">
			<path display="none" d="M165.6,48.8c2.6,10.6-14.2,33.7-32.2,33.7s-36.3-21.3-32.9-33.7c3.6-13,15-15.3,32.9-15.3
				S162.5,36.1,165.6,48.8z"/>
			<path d="M165.6,50.8c-1.8,13.3-14.2,33.7-32.2,33.7s-30.5-20.9-32.9-33.7c3.6-13,15-15.3,32.9-15.3S162.5,38.1,165.6,50.8z"/>
			<path fill="#4D4D4D" d="M158.2,50.8c2,8.2-10.9,1.3-24.8,1.3c-13.9,0-28.2,8.3-25.6-1.3c2.8-10.1,11.6-11.8,25.5-11.8
				S155.8,41,158.2,50.8z"/>
			<path d="M120.9,47.5c1.2-0.2,1.9-1.3,1.8-2.4c-2.4-14.6-10.6-25-18.6-23.7c-1.2,0.2-1.9,1.3-1.8,2.4c0.2,1.2,1.6,4,2.8,3.9
				c6-1,11.7,7.7,13.4,18.1C118.7,46.9,119.8,47.7,120.9,47.5z"/>
			<path d="M146,47.5c-1.2-0.2-1.9-1.3-1.8-2.4c2.4-14.6,10.5-25,18.6-23.7c1.2,0.2,1.9,1.3,1.8,2.4c-0.2,1.2-1.6,4-2.8,3.9
				c-6-1-11.7,7.8-13.4,18.1C148.2,46.9,147.1,47.7,146,47.5z"/>
		</g>
		<g id="wings_9_" opacity="0.9">
			<g>
				<path fill="#CCCCCC" d="M152.8,75.3c23.3-4.7,62,67.2,75.8,143.8c-12.6,7.7-45.3,16.5-64.6,0.8c-8.1-16.7-25.6-103.6-24.6-121.8
					C140,87.2,142.2,77.5,152.8,75.3z"/>
				<path opacity="0.5" fill="#FFFFFF" d="M144.1,94.7c0,0,1.4-14.3,8.2-16.5c2.8-0.9,8,1.1,10.4,2.7c14.6,9.4,29.6,42,29.6,42
					s-21.3-33.2-35.6-39.5C150.1,82.5,144.1,94.7,144.1,94.7z"/>
				<path opacity="0.5" fill="#FFFFFF" d="M207.5,161.8c0,0,12.4,36.5,14.8,54.5c-5.3,2.4-26.7,9.6-39,5.8
					c10.3-0.9,24.1-6.4,30.6-10.5C213.2,193.4,207.5,161.8,207.5,161.8z"/>
			</g>
			<g>
				<path fill="#CCCCCC" d="M114.3,75.5c-23.2-4.7-62,67.2-75.9,143.7c12.6,7.7,45.3,16.5,64.6,0.8c8.2-16.7,25.6-103.6,24.6-121.8
					C127.2,87.4,124.9,77.6,114.3,75.5z"/>
				<path opacity="0.5" fill="#FFFFFF" d="M123,94.9c0,0-1.3-14.3-8.1-16.5c-2.8-0.9-8,1.1-10.4,2.7c-14.6,9.4-29.6,42-29.6,42
					s21.3-33.2,35.7-39.5C117,82.7,123,94.9,123,94.9z"/>
				<path opacity="0.5" fill="#FFFFFF" d="M59.7,160.9c0,0-12.4,36.5-14.8,54.4c5.3,2.4,26.7,9.6,38.9,5.8
					c-10.3-0.9-24.1-6.4-30.6-10.5C54.1,192.6,59.7,160.9,59.7,160.9z"/>
			</g>
		</g>
	</g>
</g>
<g id="bee_x5F_3">
	<g id="bee3_1_">
		<g id="body_6_">
			<g>
				
					<radialGradient id="SVGID_17_" cx="138.4719" cy="151.7379" r="80.9721" gradientTransform="matrix(0.9874 0 0 0.8884 -3.734 7.6962)" gradientUnits="userSpaceOnUse">
					<stop  offset="0" style="stop-color:#FBD383"/>
					<stop  offset="0.1828" style="stop-color:#FCC671"/>
					<stop  offset="0.4441" style="stop-color:#FEB85E"/>
					<stop  offset="0.7133" style="stop-color:#FFB053"/>
					<stop  offset="1" style="stop-color:#FFAD4F"/>
				</radialGradient>
				<path fill="url(#SVGID_17_)" d="M186.1,116.6c-1.8-5.6-3.6-10.3-5.6-14.4c-31.6-2.7-61.1-2.7-93.6-0.1
					c-2.3,4.6-4.3,9.6-6.2,15.2C117,122.3,151.1,120.5,186.1,116.6z"/>
				
					<radialGradient id="SVGID_18_" cx="138.4719" cy="151.7379" r="80.9721" gradientTransform="matrix(0.9874 0 0 0.8884 -3.734 7.6962)" gradientUnits="userSpaceOnUse">
					<stop  offset="0" style="stop-color:#FBD383"/>
					<stop  offset="0.1828" style="stop-color:#FCC671"/>
					<stop  offset="0.4441" style="stop-color:#FEB85E"/>
					<stop  offset="0.7133" style="stop-color:#FFB053"/>
					<stop  offset="1" style="stop-color:#FFAD4F"/>
				</radialGradient>
				<path fill="url(#SVGID_18_)" d="M163.2,78.7c-2.4-2.3-4.9-4.6-7.6-7c-7.9-3.4-39.1-1.7-44.8,0c-2.6,2.4-5,4.7-7.2,7.1
					C124.4,78.1,143.6,78,163.2,78.7z"/>
				
					<radialGradient id="SVGID_19_" cx="138.4719" cy="151.7379" r="80.9721" gradientTransform="matrix(0.9874 0 0 0.8884 -3.734 7.6962)" gradientUnits="userSpaceOnUse">
					<stop  offset="0" style="stop-color:#FBD383"/>
					<stop  offset="0.1828" style="stop-color:#FCC671"/>
					<stop  offset="0.4441" style="stop-color:#FEB85E"/>
					<stop  offset="0.7133" style="stop-color:#FFB053"/>
					<stop  offset="1" style="stop-color:#FFAD4F"/>
				</radialGradient>
				<path fill="url(#SVGID_19_)" d="M187.1,157.5c2-5.5,3.6-11.2,4.6-17c-39.6,8.2-78.4,8.2-116.5,0.3c1.4,5.4,3.8,11.4,6.7,17.4
					C118.4,166.1,152.3,165.5,187.1,157.5z"/>
				
					<radialGradient id="SVGID_20_" cx="138.4719" cy="151.7379" r="80.9721" gradientTransform="matrix(0.9874 0 0 0.8884 -3.734 7.6962)" gradientUnits="userSpaceOnUse">
					<stop  offset="0" style="stop-color:#FBD383"/>
					<stop  offset="0.1828" style="stop-color:#FCC671"/>
					<stop  offset="0.4441" style="stop-color:#FEB85E"/>
					<stop  offset="0.7133" style="stop-color:#FFB053"/>
					<stop  offset="1" style="stop-color:#FFAD4F"/>
				</radialGradient>
				<path fill="url(#SVGID_20_)" d="M157,201.3c5.8-4.7,11.5-10.9,16.5-18c-25.4,4.6-51.1,5.1-76.5,1c4.9,7.1,9.7,13.1,13.3,16.7
					c7.6-0.9,17.2-2,21.8-2C137.4,199,149.1,200.3,157,201.3z"/>
			</g>
			<g>
				<path d="M180.5,102.2c-4.9-10.3-10.5-16.9-17.3-23.4c-19.6-0.7-38.8-0.7-59.6,0.1c-6.9,7.3-12.2,14.6-16.6,23.3
					C119.4,99.5,148.9,99.5,180.5,102.2z"/>
				<path d="M191.8,140.5c0.1-0.5,0.2-1,0.3-1.5c-1.9-8.8-3.9-16.1-5.9-22.4c-35,3.9-69.1,5.7-105.4,0.7c-2.1,6.3-4.1,13.5-5.9,21.7
					c0.1,0.6,0.3,1.2,0.4,1.8C113.3,148.7,152.1,148.6,191.8,140.5z"/>
				<path d="M173.6,183.2c5.4-7.6,10.1-16.4,13.5-25.8c-34.8,8.1-68.7,8.6-105.2,0.7c4.3,9.1,9.8,18.3,15.2,26.1
					C122.5,188.4,148.2,187.9,173.6,183.2z"/>
				<path d="M153,204.3c1.3-0.9,2.7-1.9,4-3c-7.9-1-19.6-2.3-24.8-2.3c-4.6,0-14.2,1-21.8,2c1.6,1.6,3,2.7,4.1,3.3
					c9.7,12.5,14.1,29.8,18.5,47.7C138,233.6,143.6,216.5,153,204.3z"/>
			</g>
			<g>
				<radialGradient id="SVGID_21_" cx="132.8397" cy="110.2607" r="28.9869" gradientUnits="userSpaceOnUse">
					<stop  offset="0" style="stop-color:#FFFFFF;stop-opacity:0.8"/>
					<stop  offset="6.913048e-02" style="stop-color:#FFFCE9;stop-opacity:0.8138"/>
					<stop  offset="0.2159" style="stop-color:#FEF7BF;stop-opacity:0.8432"/>
					<stop  offset="0.3661" style="stop-color:#FDF29D;stop-opacity:0.8732"/>
					<stop  offset="0.5181" style="stop-color:#FDEE82;stop-opacity:0.9036"/>
					<stop  offset="0.6726" style="stop-color:#FCEC6F;stop-opacity:0.9345"/>
					<stop  offset="0.8311" style="stop-color:#FCEA64;stop-opacity:0.9662"/>
					<stop  offset="1" style="stop-color:#FCEA60"/>
				</radialGradient>
				<path fill="url(#SVGID_21_)" d="M172.6,118c-1.2-6-3.1-11.7-5.5-16.8c-22.9-1.4-45-1.4-68.4,0.1c-2.5,5.3-4.4,11.2-5.6,17.5
					C120.2,121.4,146.2,120.5,172.6,118z"/>
				<radialGradient id="SVGID_22_" cx="132.9167" cy="153.6929" r="29.9252" gradientUnits="userSpaceOnUse">
					<stop  offset="0" style="stop-color:#FFFFFF;stop-opacity:0.8"/>
					<stop  offset="6.913048e-02" style="stop-color:#FFFCE9;stop-opacity:0.8138"/>
					<stop  offset="0.2159" style="stop-color:#FEF7BF;stop-opacity:0.8432"/>
					<stop  offset="0.3661" style="stop-color:#FDF29D;stop-opacity:0.8732"/>
					<stop  offset="0.5181" style="stop-color:#FDEE82;stop-opacity:0.9036"/>
					<stop  offset="0.6726" style="stop-color:#FCEC6F;stop-opacity:0.9345"/>
					<stop  offset="0.8311" style="stop-color:#FCEA64;stop-opacity:0.9662"/>
					<stop  offset="1" style="stop-color:#FCEA60"/>
				</radialGradient>
				<path fill="url(#SVGID_22_)" d="M170.7,160.7c1.6-5.3,2.8-11.1,3.3-17.1c-27.8,4-55.2,4-82.2,0.1c0.5,6,1.6,11.7,3.3,17
					C121,164.9,145.8,164.8,170.7,160.7z"/>
				<radialGradient id="SVGID_23_" cx="132.9846" cy="191.2341" r="17.2283" gradientUnits="userSpaceOnUse">
					<stop  offset="0" style="stop-color:#FFFFFF;stop-opacity:0.8"/>
					<stop  offset="6.913048e-02" style="stop-color:#FFFCE9;stop-opacity:0.8138"/>
					<stop  offset="0.2159" style="stop-color:#FEF7BF;stop-opacity:0.8432"/>
					<stop  offset="0.3661" style="stop-color:#FDF29D;stop-opacity:0.8732"/>
					<stop  offset="0.5181" style="stop-color:#FDEE82;stop-opacity:0.9036"/>
					<stop  offset="0.6726" style="stop-color:#FCEC6F;stop-opacity:0.9345"/>
					<stop  offset="0.8311" style="stop-color:#FCEA64;stop-opacity:0.9662"/>
					<stop  offset="1" style="stop-color:#FCEA60"/>
				</radialGradient>
				<path fill="url(#SVGID_23_)" d="M156.7,185.7c-15.8,1.7-31.7,1.8-47.5,0.2c6.7,6.9,14.9,10.9,23.7,10.9
					C141.8,196.8,150,192.7,156.7,185.7z"/>
				<radialGradient id="SVGID_24_" cx="132.8524" cy="76.5414" r="10.1388" gradientUnits="userSpaceOnUse">
					<stop  offset="0" style="stop-color:#FFFFFF;stop-opacity:0.8"/>
					<stop  offset="6.913048e-02" style="stop-color:#FFFCE9;stop-opacity:0.8138"/>
					<stop  offset="0.2159" style="stop-color:#FEF7BF;stop-opacity:0.8432"/>
					<stop  offset="0.3661" style="stop-color:#FDF29D;stop-opacity:0.8732"/>
					<stop  offset="0.5181" style="stop-color:#FDEE82;stop-opacity:0.9036"/>
					<stop  offset="0.6726" style="stop-color:#FCEC6F;stop-opacity:0.9345"/>
					<stop  offset="0.8311" style="stop-color:#FCEA64;stop-opacity:0.9662"/>
					<stop  offset="1" style="stop-color:#FCEA60"/>
				</radialGradient>
				<path fill="url(#SVGID_24_)" d="M147.1,78.3c-4.4-2.4-9.2-3.7-14.2-3.7c-5,0-9.8,1.3-14.3,3.7C128.3,78.2,137.7,78.2,147.1,78.3
					z"/>
			</g>
			<g>
				<path fill="#333333" d="M156.7,88.3c-1.6-1.8-3.5-3.4-5.8-4.2c-1.4-0.5-3-0.7-4.5-0.9c-7.5-0.8-15.1-1.5-22.7-1.4
					c-4.3,0-8.9,0.3-12.4,2.9c-1.6,1.1-2.9,2.7-3.7,4.5c-0.8,1.7-1,4,0.3,5.3c1,1,2.6,1.1,4,1.1c13.9,0.2,27.8,0.5,41.7,0.7
					c1.6,0,3.3,0,4.4-1.2C160,93.4,158.5,90.3,156.7,88.3z"/>
				<path fill="#333333" d="M158.6,169.2c3.2,0.3,1,8-1.6,10c-2.6,2-12.6,4-21,4.2c-8.4,0.2-18.6,1.2-22.4-1.2s-9.6-11.2-7-13
					c2.6-1.8,23.2,0.2,27.2,0.2S151.6,168.6,158.6,169.2z"/>
				<path fill="#333333" d="M159.7,124.1c9.2,2.6,9.2,13.4,5.6,15.9c-1.8,1.3-21.6,3.7-29.4,3.3c-7.8-0.4-30.9,0.6-34.7-2
					s-4.1-15,1.7-17.2c5.8-2.2,25,0,29.8,0C137.5,124.1,154.1,122.5,159.7,124.1z"/>
			</g>
		</g>
		<g id="head_6_">
			<path display="none" d="M165.6,48.8c2.6,10.6-14.2,33.7-32.2,33.7s-36.3-21.3-32.9-33.7c3.6-13,15-15.3,32.9-15.3
				S162.5,36.1,165.6,48.8z"/>
			<path d="M165.6,50.8c-1.8,13.3-14.2,33.7-32.2,33.7s-30.5-20.9-32.9-33.7c3.6-13,15-15.3,32.9-15.3S162.5,38.1,165.6,50.8z"/>
			<path fill="#4D4D4D" d="M158.2,50.8c2,8.2-10.9,1.3-24.8,1.3c-13.9,0-28.2,8.3-25.6-1.3c2.8-10.1,11.6-11.8,25.5-11.8
				S155.8,41,158.2,50.8z"/>
			<path d="M121.1,47.5c1.2-0.1,2-1.2,1.9-2.4c-1.8-14.7-9.5-25.4-17.7-24.4c-1.2,0.1-2,1.2-1.9,2.4c0.1,1.2,1.5,4.1,2.6,4
				c6-0.7,11.4,8.2,12.7,18.6C118.9,46.8,120,47.6,121.1,47.5z"/>
			<path d="M145.7,47.5c-1.2-0.1-2-1.2-1.9-2.4c1.8-14.7,9.5-25.4,17.7-24.4c1.2,0.1,2,1.2,1.9,2.4s-1.5,4.1-2.6,4
				c-6-0.7-11.4,8.2-12.7,18.6C148,46.8,146.9,47.7,145.7,47.5z"/>
		</g>
		<g id="wings_6_" opacity="0.9">
			<g>
				<path fill="#CCCCCC" d="M152.8,75.2c23.4-3.7,59,69.8,69.5,146.9c-13,7.1-46,14.5-64.6-2c-7.4-17-21.1-104.7-19.3-122.8
					C139.4,86.5,142.1,76.9,152.8,75.2z"/>
				<path opacity="0.5" fill="#FFFFFF" d="M143.2,94.2c0,0,2-14.2,8.9-16.2c2.8-0.8,7.9,1.5,10.3,3.2c14.1,10,27.7,43.3,27.7,43.3
					s-19.8-34.1-33.9-41C149.8,82.3,143.2,94.2,143.2,94.2z"/>
				<path opacity="0.5" fill="#FFFFFF" d="M203.7,164c0,0,10.8,37,12.4,55c-5.4,2.2-27.1,8.4-39.2,4.1c10.4-0.5,24.3-5.4,31.1-9.2
					C207.9,195.8,203.7,164,203.7,164z"/>
			</g>
			<g>
				<path fill="#CCCCCC" d="M114.4,75.3c-23.4-3.7-59,69.8-69.5,146.9c13,7.1,46,14.5,64.6-2c7.4-17,21.1-104.7,19.3-122.8
					C127.7,86.6,125,77,114.4,75.3z"/>
				<path opacity="0.5" fill="#FFFFFF" d="M123.9,94.4c0,0-2-14.2-8.9-16.2c-2.8-0.8-7.9,1.5-10.3,3.2C90.6,91.4,77,124.7,77,124.7
					s19.8-34.1,33.9-41C117.4,82.4,123.9,94.4,123.9,94.4z"/>
				<path opacity="0.5" fill="#FFFFFF" d="M63.5,163.1c0,0-10.8,37-12.4,55c5.4,2.2,27.1,8.4,39.2,4.1c-10.4-0.5-24.3-5.4-31.1-9.2
					C59.3,195,63.5,163.1,63.5,163.1z"/>
			</g>
		</g>
	</g>
</g>
<g id="bee_x5F_2">
	<g id="bee2_1_">
		<g id="body_4_">
			<g>
				
					<radialGradient id="SVGID_25_" cx="138.4719" cy="151.1751" r="80.9721" gradientTransform="matrix(0.9874 0 0 0.8884 -3.734 7.6962)" gradientUnits="userSpaceOnUse">
					<stop  offset="0" style="stop-color:#FBD383"/>
					<stop  offset="0.1828" style="stop-color:#FCC671"/>
					<stop  offset="0.4441" style="stop-color:#FEB85E"/>
					<stop  offset="0.7133" style="stop-color:#FFB053"/>
					<stop  offset="1" style="stop-color:#FFAD4F"/>
				</radialGradient>
				<path fill="url(#SVGID_25_)" d="M186.1,116.1c-1.8-5.6-3.6-10.3-5.6-14.4C148.9,99,119.4,99,87,101.6c-2.3,4.6-4.3,9.6-6.2,15.2
					C117,121.8,151.1,120,186.1,116.1z"/>
				
					<radialGradient id="SVGID_26_" cx="138.4719" cy="151.1751" r="80.9721" gradientTransform="matrix(0.9874 0 0 0.8884 -3.734 7.6962)" gradientUnits="userSpaceOnUse">
					<stop  offset="0" style="stop-color:#FBD383"/>
					<stop  offset="0.1828" style="stop-color:#FCC671"/>
					<stop  offset="0.4441" style="stop-color:#FEB85E"/>
					<stop  offset="0.7133" style="stop-color:#FFB053"/>
					<stop  offset="1" style="stop-color:#FFAD4F"/>
				</radialGradient>
				<path fill="url(#SVGID_26_)" d="M163.2,78.2c-2.4-2.3-4.9-4.6-7.6-7c-7.9-3.4-39.1-1.7-44.8,0c-2.6,2.4-5,4.7-7.2,7.1
					C124.4,77.6,143.6,77.5,163.2,78.2z"/>
				
					<radialGradient id="SVGID_27_" cx="138.4719" cy="151.1751" r="80.9721" gradientTransform="matrix(0.9874 0 0 0.8884 -3.734 7.6962)" gradientUnits="userSpaceOnUse">
					<stop  offset="0" style="stop-color:#FBD383"/>
					<stop  offset="0.1828" style="stop-color:#FCC671"/>
					<stop  offset="0.4441" style="stop-color:#FEB85E"/>
					<stop  offset="0.7133" style="stop-color:#FFB053"/>
					<stop  offset="1" style="stop-color:#FFAD4F"/>
				</radialGradient>
				<path fill="url(#SVGID_27_)" d="M187.1,157c2-5.5,3.6-11.2,4.6-17c-39.6,8.2-78.4,8.2-116.5,0.3c1.4,5.4,3.8,11.4,6.7,17.4
					C118.4,165.6,152.3,165,187.1,157z"/>
				
					<radialGradient id="SVGID_28_" cx="138.4719" cy="151.1751" r="80.9721" gradientTransform="matrix(0.9874 0 0 0.8884 -3.734 7.6962)" gradientUnits="userSpaceOnUse">
					<stop  offset="0" style="stop-color:#FBD383"/>
					<stop  offset="0.1828" style="stop-color:#FCC671"/>
					<stop  offset="0.4441" style="stop-color:#FEB85E"/>
					<stop  offset="0.7133" style="stop-color:#FFB053"/>
					<stop  offset="1" style="stop-color:#FFAD4F"/>
				</radialGradient>
				<path fill="url(#SVGID_28_)" d="M157,200.8c5.8-4.7,11.5-10.9,16.5-18c-25.4,4.6-51.1,5.1-76.5,1c4.9,7.1,9.7,13.1,13.3,16.7
					c7.6-0.9,17.2-2,21.8-2C137.4,198.5,149.1,199.8,157,200.8z"/>
			</g>
			<g>
				<path d="M180.5,101.7c-4.9-10.3-10.5-16.9-17.3-23.4c-19.6-0.7-38.8-0.7-59.6,0.1c-6.9,7.3-12.2,14.6-16.6,23.3
					C119.4,99,148.9,99,180.5,101.7z"/>
				<path d="M191.8,140c0.1-0.5,0.2-1,0.3-1.5c-1.9-8.8-3.9-16.1-5.9-22.4c-35,3.9-69.1,5.7-105.4,0.7c-2.1,6.3-4.1,13.5-5.9,21.7
					c0.1,0.6,0.3,1.2,0.4,1.8C113.3,148.2,152.1,148.1,191.8,140z"/>
				<path d="M173.6,182.7c5.4-7.6,10.1-16.4,13.5-25.8c-34.8,8.1-68.7,8.6-105.2,0.7c4.3,9.1,9.8,18.3,15.2,26.1
					C122.5,187.9,148.2,187.4,173.6,182.7z"/>
				<path d="M153,203.8c1.3-0.9,2.7-1.9,4-3c-7.9-1-19.6-2.3-24.8-2.3c-4.6,0-14.2,1-21.8,2c1.6,1.6,3,2.7,4.1,3.3
					c9.7,12.5,14.1,29.8,18.5,47.7C138,233.1,143.6,216,153,203.8z"/>
			</g>
			<g>
				<radialGradient id="SVGID_29_" cx="132.8397" cy="109.7607" r="28.9869" gradientUnits="userSpaceOnUse">
					<stop  offset="0" style="stop-color:#FFFFFF;stop-opacity:0.8"/>
					<stop  offset="6.913048e-02" style="stop-color:#FFFCE9;stop-opacity:0.8138"/>
					<stop  offset="0.2159" style="stop-color:#FEF7BF;stop-opacity:0.8432"/>
					<stop  offset="0.3661" style="stop-color:#FDF29D;stop-opacity:0.8732"/>
					<stop  offset="0.5181" style="stop-color:#FDEE82;stop-opacity:0.9036"/>
					<stop  offset="0.6726" style="stop-color:#FCEC6F;stop-opacity:0.9345"/>
					<stop  offset="0.8311" style="stop-color:#FCEA64;stop-opacity:0.9662"/>
					<stop  offset="1" style="stop-color:#FCEA60"/>
				</radialGradient>
				<path fill="url(#SVGID_29_)" d="M172.6,117.5c-1.2-6-3.1-11.7-5.5-16.8c-22.9-1.4-45-1.4-68.4,0.1c-2.5,5.3-4.4,11.2-5.6,17.5
					C120.2,120.9,146.2,120,172.6,117.5z"/>
				<radialGradient id="SVGID_30_" cx="132.9167" cy="153.1929" r="29.9252" gradientUnits="userSpaceOnUse">
					<stop  offset="0" style="stop-color:#FFFFFF;stop-opacity:0.8"/>
					<stop  offset="6.913048e-02" style="stop-color:#FFFCE9;stop-opacity:0.8138"/>
					<stop  offset="0.2159" style="stop-color:#FEF7BF;stop-opacity:0.8432"/>
					<stop  offset="0.3661" style="stop-color:#FDF29D;stop-opacity:0.8732"/>
					<stop  offset="0.5181" style="stop-color:#FDEE82;stop-opacity:0.9036"/>
					<stop  offset="0.6726" style="stop-color:#FCEC6F;stop-opacity:0.9345"/>
					<stop  offset="0.8311" style="stop-color:#FCEA64;stop-opacity:0.9662"/>
					<stop  offset="1" style="stop-color:#FCEA60"/>
				</radialGradient>
				<path fill="url(#SVGID_30_)" d="M170.7,160.2c1.6-5.3,2.8-11.1,3.3-17.1c-27.8,4-55.2,4-82.2,0.1c0.5,6,1.6,11.7,3.3,17
					C121,164.4,145.8,164.3,170.7,160.2z"/>
				<radialGradient id="SVGID_31_" cx="132.9846" cy="190.7341" r="17.2283" gradientUnits="userSpaceOnUse">
					<stop  offset="0" style="stop-color:#FFFFFF;stop-opacity:0.8"/>
					<stop  offset="6.913048e-02" style="stop-color:#FFFCE9;stop-opacity:0.8138"/>
					<stop  offset="0.2159" style="stop-color:#FEF7BF;stop-opacity:0.8432"/>
					<stop  offset="0.3661" style="stop-color:#FDF29D;stop-opacity:0.8732"/>
					<stop  offset="0.5181" style="stop-color:#FDEE82;stop-opacity:0.9036"/>
					<stop  offset="0.6726" style="stop-color:#FCEC6F;stop-opacity:0.9345"/>
					<stop  offset="0.8311" style="stop-color:#FCEA64;stop-opacity:0.9662"/>
					<stop  offset="1" style="stop-color:#FCEA60"/>
				</radialGradient>
				<path fill="url(#SVGID_31_)" d="M156.7,185.2c-15.8,1.7-31.7,1.8-47.5,0.2c6.7,6.9,14.9,10.9,23.7,10.9
					C141.8,196.3,150,192.2,156.7,185.2z"/>
				<radialGradient id="SVGID_32_" cx="132.8524" cy="76.0414" r="10.1388" gradientUnits="userSpaceOnUse">
					<stop  offset="0" style="stop-color:#FFFFFF;stop-opacity:0.8"/>
					<stop  offset="6.913048e-02" style="stop-color:#FFFCE9;stop-opacity:0.8138"/>
					<stop  offset="0.2159" style="stop-color:#FEF7BF;stop-opacity:0.8432"/>
					<stop  offset="0.3661" style="stop-color:#FDF29D;stop-opacity:0.8732"/>
					<stop  offset="0.5181" style="stop-color:#FDEE82;stop-opacity:0.9036"/>
					<stop  offset="0.6726" style="stop-color:#FCEC6F;stop-opacity:0.9345"/>
					<stop  offset="0.8311" style="stop-color:#FCEA64;stop-opacity:0.9662"/>
					<stop  offset="1" style="stop-color:#FCEA60"/>
				</radialGradient>
				<path fill="url(#SVGID_32_)" d="M147.1,77.8c-4.4-2.4-9.2-3.7-14.2-3.7c-5,0-9.8,1.3-14.3,3.7C128.3,77.7,137.7,77.7,147.1,77.8
					z"/>
			</g>
			<g>
				<path fill="#333333" d="M156.7,87.8c-1.6-1.8-3.5-3.4-5.8-4.2c-1.4-0.5-3-0.7-4.5-0.9c-7.5-0.8-15.1-1.5-22.7-1.4
					c-4.3,0-8.9,0.3-12.4,2.9c-1.6,1.1-2.9,2.7-3.7,4.5c-0.8,1.7-1,4,0.3,5.3c1,1,2.6,1.1,4,1.1c13.9,0.2,27.8,0.5,41.7,0.7
					c1.6,0,3.3,0,4.4-1.2C160,92.9,158.5,89.8,156.7,87.8z"/>
				<path fill="#333333" d="M158.6,168.7c3.2,0.3,1,8-1.6,10c-2.6,2-12.6,4-21,4.2c-8.4,0.2-18.6,1.2-22.4-1.2s-9.6-11.2-7-13
					c2.6-1.8,23.2,0.2,27.2,0.2S151.6,168.1,158.6,168.7z"/>
				<path fill="#333333" d="M159.7,123.6c9.2,2.6,9.2,13.4,5.6,15.9c-1.8,1.3-21.6,3.7-29.4,3.3c-7.8-0.4-30.9,0.6-34.7-2
					s-4.1-15,1.7-17.2c5.8-2.2,25,0,29.8,0C137.5,123.6,154.1,122,159.7,123.6z"/>
			</g>
		</g>
		<g id="head_4_">
			<path display="none" d="M165.6,48.3c2.6,10.6-14.2,33.7-32.2,33.7s-36.3-21.3-32.9-33.7c3.6-13,15-15.3,32.9-15.3
				S162.5,35.6,165.6,48.3z"/>
			<path d="M165.6,50.3C163.7,63.5,151.3,84,133.4,84S102.8,63,100.4,50.3c3.6-13,15-15.3,32.9-15.3S162.5,37.6,165.6,50.3z"/>
			<path fill="#4D4D4D" d="M158.2,50.3c2,8.2-10.9,1.3-24.8,1.3c-13.9,0-28.2,8.3-25.6-1.3c2.8-10.1,11.6-11.8,25.5-11.8
				S155.8,40.5,158.2,50.3z"/>
			<path d="M121,47c1.2-0.1,2.1-1.1,2-2.3c-1.1-14.7-8.3-25.8-16.4-25.3c-1.2,0.1-2.1,1.1-2,2.3c0.1,1.2,1.3,4.2,2.4,4.1
				c6.1-0.4,11,8.8,11.7,19.2C118.8,46.2,119.9,47.1,121,47z"/>
			<path d="M145.9,47c-1.2-0.1-2.1-1.1-2-2.3c1-14.8,8.2-25.9,16.4-25.3c1.2,0.1,2.1,1.1,2,2.3s-1.2,4.2-2.4,4.1
				c-6.1-0.4-11,8.8-11.7,19.2C148.1,46.2,147,47.1,145.9,47z"/>
		</g>
		<g id="wings_4_" opacity="0.9">
			<g>
				<path fill="#CCCCCC" d="M152.9,74.9c23.6-2.7,55.8,72.4,62.9,149.9c-13.3,6.6-46.6,12.4-64.5-4.9
					c-6.6-17.4-16.4-105.5-13.8-123.5C139.1,85.6,142.2,76.1,152.9,74.9z"/>
				<path opacity="0.5" fill="#FFFFFF" d="M142.5,93.5c0,0,2.6-14.1,9.6-15.8c2.9-0.7,7.8,1.8,10.2,3.6
					C175.9,92,188,125.9,188,125.9s-18.3-35-32-42.5C149.6,81.9,142.5,93.5,142.5,93.5z"/>
				<path opacity="0.5" fill="#FFFFFF" d="M199.8,165.9c0,0,9.2,37.4,10,55.5c-5.5,1.9-27.4,7.2-39.3,2.3c10.4,0,24.5-4.3,31.4-7.8
					C202.6,197.9,199.8,165.9,199.8,165.9z"/>
			</g>
			<g>
				<path fill="#CCCCCC" d="M114.3,75c-23.6-2.7-55.8,72.4-62.9,149.9c13.3,6.6,46.6,12.4,64.5-4.9c6.6-17.4,16.4-105.5,13.8-123.5
					C128.1,85.7,125,76.2,114.3,75z"/>
				<path opacity="0.5" fill="#FFFFFF" d="M124.7,93.6c0,0-2.6-14.1-9.6-15.8c-2.9-0.7-7.8,1.8-10.2,3.6
					c-13.7,10.7-25.8,44.5-25.8,44.5s18.3-35,32-42.5C117.6,81.9,124.7,93.6,124.7,93.6z"/>
				<path opacity="0.5" fill="#FFFFFF" d="M67.4,164.9c0,0-9.2,37.4-10,55.5c5.5,1.9,27.4,7.2,39.3,2.3c-10.4,0-24.5-4.3-31.4-7.8
					C64.6,197,67.4,164.9,67.4,164.9z"/>
			</g>
		</g>
	</g>
</g>
<g id="bee_x5F_1">
	<g id="bee1_1_">
		<g id="body_2_">
			<g>
				
					<radialGradient id="SVGID_33_" cx="138.4719" cy="151.7379" r="80.9721" gradientTransform="matrix(0.9874 0 0 0.8884 -3.734 7.6962)" gradientUnits="userSpaceOnUse">
					<stop  offset="0" style="stop-color:#FBD383"/>
					<stop  offset="0.1828" style="stop-color:#FCC671"/>
					<stop  offset="0.4441" style="stop-color:#FEB85E"/>
					<stop  offset="0.7133" style="stop-color:#FFB053"/>
					<stop  offset="1" style="stop-color:#FFAD4F"/>
				</radialGradient>
				<path fill="url(#SVGID_33_)" d="M186.1,116.6c-1.8-5.6-3.6-10.3-5.6-14.4c-31.6-2.7-61.1-2.7-93.6-0.1
					c-2.3,4.6-4.3,9.6-6.2,15.2C117,122.3,151.1,120.5,186.1,116.6z"/>
				
					<radialGradient id="SVGID_34_" cx="138.4719" cy="151.7379" r="80.9721" gradientTransform="matrix(0.9874 0 0 0.8884 -3.734 7.6962)" gradientUnits="userSpaceOnUse">
					<stop  offset="0" style="stop-color:#FBD383"/>
					<stop  offset="0.1828" style="stop-color:#FCC671"/>
					<stop  offset="0.4441" style="stop-color:#FEB85E"/>
					<stop  offset="0.7133" style="stop-color:#FFB053"/>
					<stop  offset="1" style="stop-color:#FFAD4F"/>
				</radialGradient>
				<path fill="url(#SVGID_34_)" d="M163.2,78.7c-2.4-2.3-4.9-4.6-7.6-7c-7.9-3.4-39.1-1.7-44.8,0c-2.6,2.4-5,4.7-7.2,7.1
					C124.4,78.1,143.6,78,163.2,78.7z"/>
				
					<radialGradient id="SVGID_35_" cx="138.4719" cy="151.7379" r="80.9721" gradientTransform="matrix(0.9874 0 0 0.8884 -3.734 7.6962)" gradientUnits="userSpaceOnUse">
					<stop  offset="0" style="stop-color:#FBD383"/>
					<stop  offset="0.1828" style="stop-color:#FCC671"/>
					<stop  offset="0.4441" style="stop-color:#FEB85E"/>
					<stop  offset="0.7133" style="stop-color:#FFB053"/>
					<stop  offset="1" style="stop-color:#FFAD4F"/>
				</radialGradient>
				<path fill="url(#SVGID_35_)" d="M187.1,157.5c2-5.5,3.6-11.2,4.6-17c-39.6,8.2-78.4,8.2-116.5,0.3c1.4,5.4,3.8,11.4,6.7,17.4
					C118.4,166.1,152.3,165.5,187.1,157.5z"/>
				
					<radialGradient id="SVGID_36_" cx="138.4719" cy="151.7379" r="80.9721" gradientTransform="matrix(0.9874 0 0 0.8884 -3.734 7.6962)" gradientUnits="userSpaceOnUse">
					<stop  offset="0" style="stop-color:#FBD383"/>
					<stop  offset="0.1828" style="stop-color:#FCC671"/>
					<stop  offset="0.4441" style="stop-color:#FEB85E"/>
					<stop  offset="0.7133" style="stop-color:#FFB053"/>
					<stop  offset="1" style="stop-color:#FFAD4F"/>
				</radialGradient>
				<path fill="url(#SVGID_36_)" d="M157,201.3c5.8-4.7,11.5-10.9,16.5-18c-25.4,4.6-51.1,5.1-76.5,1c4.9,7.1,9.7,13.1,13.3,16.7
					c7.6-0.9,17.2-2,21.8-2C137.4,199,149.1,200.3,157,201.3z"/>
			</g>
			<g>
				<path d="M180.5,102.2c-4.9-10.3-10.5-16.9-17.3-23.4c-19.6-0.7-38.8-0.7-59.6,0.1c-6.9,7.3-12.2,14.6-16.6,23.3
					C119.4,99.5,148.9,99.5,180.5,102.2z"/>
				<path d="M191.8,140.5c0.1-0.5,0.2-1,0.3-1.5c-1.9-8.8-3.9-16.1-5.9-22.4c-35,3.9-69.1,5.7-105.4,0.7c-2.1,6.3-4.1,13.5-5.9,21.7
					c0.1,0.6,0.3,1.2,0.4,1.8C113.3,148.7,152.1,148.6,191.8,140.5z"/>
				<path d="M173.6,183.2c5.4-7.6,10.1-16.4,13.5-25.8c-34.8,8.1-68.7,8.6-105.2,0.7c4.3,9.1,9.8,18.3,15.2,26.1
					C122.5,188.4,148.2,187.9,173.6,183.2z"/>
				<path d="M153,204.3c1.3-0.9,2.7-1.9,4-3c-7.9-1-19.6-2.3-24.8-2.3c-4.6,0-14.2,1-21.8,2c1.6,1.6,3,2.7,4.1,3.3
					c9.7,12.5,14.1,29.8,18.5,47.7C138,233.6,143.6,216.5,153,204.3z"/>
			</g>
			<g>
				<radialGradient id="SVGID_37_" cx="132.8397" cy="110.2607" r="28.9869" gradientUnits="userSpaceOnUse">
					<stop  offset="0" style="stop-color:#FFFFFF;stop-opacity:0.8"/>
					<stop  offset="6.913048e-02" style="stop-color:#FFFCE9;stop-opacity:0.8138"/>
					<stop  offset="0.2159" style="stop-color:#FEF7BF;stop-opacity:0.8432"/>
					<stop  offset="0.3661" style="stop-color:#FDF29D;stop-opacity:0.8732"/>
					<stop  offset="0.5181" style="stop-color:#FDEE82;stop-opacity:0.9036"/>
					<stop  offset="0.6726" style="stop-color:#FCEC6F;stop-opacity:0.9345"/>
					<stop  offset="0.8311" style="stop-color:#FCEA64;stop-opacity:0.9662"/>
					<stop  offset="1" style="stop-color:#FCEA60"/>
				</radialGradient>
				<path fill="url(#SVGID_37_)" d="M172.6,118c-1.2-6-3.1-11.7-5.5-16.8c-22.9-1.4-45-1.4-68.4,0.1c-2.5,5.3-4.4,11.2-5.6,17.5
					C120.2,121.4,146.2,120.5,172.6,118z"/>
				<radialGradient id="SVGID_38_" cx="132.9167" cy="153.6929" r="29.9252" gradientUnits="userSpaceOnUse">
					<stop  offset="0" style="stop-color:#FFFFFF;stop-opacity:0.8"/>
					<stop  offset="6.913048e-02" style="stop-color:#FFFCE9;stop-opacity:0.8138"/>
					<stop  offset="0.2159" style="stop-color:#FEF7BF;stop-opacity:0.8432"/>
					<stop  offset="0.3661" style="stop-color:#FDF29D;stop-opacity:0.8732"/>
					<stop  offset="0.5181" style="stop-color:#FDEE82;stop-opacity:0.9036"/>
					<stop  offset="0.6726" style="stop-color:#FCEC6F;stop-opacity:0.9345"/>
					<stop  offset="0.8311" style="stop-color:#FCEA64;stop-opacity:0.9662"/>
					<stop  offset="1" style="stop-color:#FCEA60"/>
				</radialGradient>
				<path fill="url(#SVGID_38_)" d="M170.7,160.7c1.6-5.3,2.8-11.1,3.3-17.1c-27.8,4-55.2,4-82.2,0.1c0.5,6,1.6,11.7,3.3,17
					C121,164.9,145.8,164.8,170.7,160.7z"/>
				<radialGradient id="SVGID_39_" cx="132.9846" cy="191.2341" r="17.2283" gradientUnits="userSpaceOnUse">
					<stop  offset="0" style="stop-color:#FFFFFF;stop-opacity:0.8"/>
					<stop  offset="6.913048e-02" style="stop-color:#FFFCE9;stop-opacity:0.8138"/>
					<stop  offset="0.2159" style="stop-color:#FEF7BF;stop-opacity:0.8432"/>
					<stop  offset="0.3661" style="stop-color:#FDF29D;stop-opacity:0.8732"/>
					<stop  offset="0.5181" style="stop-color:#FDEE82;stop-opacity:0.9036"/>
					<stop  offset="0.6726" style="stop-color:#FCEC6F;stop-opacity:0.9345"/>
					<stop  offset="0.8311" style="stop-color:#FCEA64;stop-opacity:0.9662"/>
					<stop  offset="1" style="stop-color:#FCEA60"/>
				</radialGradient>
				<path fill="url(#SVGID_39_)" d="M156.7,185.7c-15.8,1.7-31.7,1.8-47.5,0.2c6.7,6.9,14.9,10.9,23.7,10.9
					C141.8,196.8,150,192.7,156.7,185.7z"/>
				<radialGradient id="SVGID_40_" cx="132.8524" cy="76.5414" r="10.1388" gradientUnits="userSpaceOnUse">
					<stop  offset="0" style="stop-color:#FFFFFF;stop-opacity:0.8"/>
					<stop  offset="6.913048e-02" style="stop-color:#FFFCE9;stop-opacity:0.8138"/>
					<stop  offset="0.2159" style="stop-color:#FEF7BF;stop-opacity:0.8432"/>
					<stop  offset="0.3661" style="stop-color:#FDF29D;stop-opacity:0.8732"/>
					<stop  offset="0.5181" style="stop-color:#FDEE82;stop-opacity:0.9036"/>
					<stop  offset="0.6726" style="stop-color:#FCEC6F;stop-opacity:0.9345"/>
					<stop  offset="0.8311" style="stop-color:#FCEA64;stop-opacity:0.9662"/>
					<stop  offset="1" style="stop-color:#FCEA60"/>
				</radialGradient>
				<path fill="url(#SVGID_40_)" d="M147.1,78.3c-4.4-2.4-9.2-3.7-14.2-3.7c-5,0-9.8,1.3-14.3,3.7C128.3,78.2,137.7,78.2,147.1,78.3
					z"/>
			</g>
			<g>
				<path fill="#333333" d="M156.7,88.3c-1.6-1.8-3.5-3.4-5.8-4.2c-1.4-0.5-3-0.7-4.5-0.9c-7.5-0.8-15.1-1.5-22.7-1.4
					c-4.3,0-8.9,0.3-12.4,2.9c-1.6,1.1-2.9,2.7-3.7,4.5c-0.8,1.7-1,4,0.3,5.3c1,1,2.6,1.1,4,1.1c13.9,0.2,27.8,0.5,41.7,0.7
					c1.6,0,3.3,0,4.4-1.2C160,93.4,158.5,90.3,156.7,88.3z"/>
				<path fill="#333333" d="M158.6,169.2c3.2,0.3,1,8-1.6,10c-2.6,2-12.6,4-21,4.2c-8.4,0.2-18.6,1.2-22.4-1.2s-9.6-11.2-7-13
					c2.6-1.8,23.2,0.2,27.2,0.2S151.6,168.6,158.6,169.2z"/>
				<path fill="#333333" d="M159.7,124.1c9.2,2.6,9.2,13.4,5.6,15.9c-1.8,1.3-21.6,3.7-29.4,3.3c-7.8-0.4-30.9,0.6-34.7-2
					s-4.1-15,1.7-17.2c5.8-2.2,25,0,29.8,0C137.5,124.1,154.1,122.5,159.7,124.1z"/>
			</g>
		</g>
		<g id="head_2_">
			<path display="none" d="M165.6,48.8c2.6,10.6-14.2,33.7-32.2,33.7s-36.3-21.3-32.9-33.7c3.6-13,15-15.3,32.9-15.3
				S162.5,36.1,165.6,48.8z"/>
			<path d="M165.6,50.8c-1.8,13.3-14.2,33.7-32.2,33.7s-30.5-20.9-32.9-33.7c3.6-13,15-15.3,32.9-15.3S162.5,38.1,165.6,50.8z"/>
			<path fill="#4D4D4D" d="M158.2,50.8c2,8.2-10.9,1.3-24.8,1.3c-13.9,0-28.2,8.3-25.6-1.3c2.8-10.1,11.6-11.8,25.5-11.8
				S155.8,41,158.2,50.8z"/>
			<path d="M120.9,47.5c1.2,0,2.1-1,2.1-2.1c0-14.8-6.4-26.4-14.6-26.4c-1.2,0-2.1,1-2.1,2.1s1,4.3,2.1,4.3c6.1,0,10.3,9.5,10.3,20
				C118.8,46.6,119.8,47.5,120.9,47.5z"/>
			<path d="M146,47.5c-1.2,0-2.1-1-2.1-2.1c0-14.8,6.4-26.4,14.6-26.4c1.2,0,2.1,1,2.1,2.1s-1,4.3-2.1,4.3c-6.1,0-10.3,9.5-10.3,20
				C148.1,46.6,147.1,47.5,146,47.5z"/>
		</g>
		<g id="wings_2_" opacity="0.9">
			<g>
				<path fill="#CCCCCC" d="M153,75.6c23.7-1.6,52.6,74.8,56.3,152.5c-13.5,6-47.1,10.4-64.2-7.7c-5.9-17.6-11.8-106.1-8.4-124
					C138.7,85.7,142.3,76.4,153,75.6z"/>
				<path opacity="0.5" fill="#FFFFFF" d="M141.8,93.8c0,0,3.2-14,10.3-15.3c2.9-0.5,7.7,2.1,10,4.1c13.2,11.2,23.8,45.6,23.8,45.6
					s-16.8-35.7-30.1-43.8C149.4,82.5,141.8,93.8,141.8,93.8z"/>
				<path opacity="0.5" fill="#FFFFFF" d="M195.9,168.5c0,0,7.5,37.8,7.5,55.9c-5.6,1.7-27.7,6-39.4,0.6c10.4,0.4,24.7-3.2,31.7-6.4
					C197.3,200.7,195.9,168.5,195.9,168.5z"/>
			</g>
			<g>
				<path fill="#CCCCCC" d="M114.2,75.6C90.5,74,61.6,150.4,57.9,228.1c13.5,6,47.1,10.4,64.2-7.7c5.9-17.6,11.8-106.1,8.4-124
					C128.5,85.7,124.9,76.4,114.2,75.6z"/>
				<path opacity="0.5" fill="#FFFFFF" d="M125.4,93.8c0,0-3.2-14-10.3-15.3c-2.9-0.5-7.7,2.1-10,4.1
					c-13.2,11.2-23.8,45.6-23.8,45.6s16.8-35.7,30.1-43.8C117.8,82.5,125.4,93.8,125.4,93.8z"/>
				<path opacity="0.5" fill="#FFFFFF" d="M71.3,167.5c0,0-7.5,37.8-7.5,55.9c5.6,1.7,27.7,6,39.4,0.6c-10.4,0.4-24.7-3.2-31.7-6.4
					C69.9,199.7,71.3,167.5,71.3,167.5z"/>
			</g>
		</g>
	</g>
</g>
</svg>
